<svg class="logo-ace" width="77" height="20" xmlns="http://www.w3.org/2000/svg" viewBox="0 0 1936.13 511.25">
  <g fill="currentColor">
    <path d="M1611.79,502.84l-1350.6-2C117.17,500.87,0,388.51,0,250.4S117.17,0,261.2,0L1611.8,1.91c144,0,261.15,112.41,261.15,250.58S1755.8,502.84,1611.79,502.84ZM261.2,9.2c-138.95,0-252,108.2-252,241.2s113.05,241.28,252,241.28l1350.6,2c138.92,0,252-108.18,252-241.15s-113-241.38-252-241.38h0Z" />
    <path d="M744.17,354.93S687,287.54,674.28,271.74l-18-22.79L560.43,129.68c-4.32-4-8.7-6.11-13.79-6.64A24,24,0,0,0,526,131.9l-70.57,88.94c-.18,0-27.14,33.65-48,59.31-12.81,15.69-45.36,55.06-45.36,55.06S338.69,363,338.69,363l50.34-.21L427.38,317l233.72.08L700.28,363H750.9C747.43,358.75,744.17,354.93,744.17,354.93ZM458.23,278.27l85-106.15,86.68,106.15Z" />
    <path d="M1184.76,122.1c-10.34,0-18.14,7.93-18.14,18.52l.11,201.49a17.69,17.69,0,0,0,18,18.1s290.28-.47,307.67-.38c.18-2.9-.18-31.47,0-34.34l-290.28.27V258.4h290.28V223.15H1202.15V156.54h290.28c-.18-2.9.18-31.78,0-34.58l-307.67.14" />
    <path d="M888.51,363H870.25c-66.82,0-121.19-54.32-121.19-121.12s54.37-121.14,121.19-121.14H997.11c54.42,0,100.56,36.17,115.79,85.78l-39.22-.24c-13.31-28-43.12-46.91-77.21-46.91H867.87c-45.13,0-81.91,36.89-81.91,82.11a82.11,82.11,0,0,0,81.91,82.09h128.6c32.51,0,62-18.62,76.2-44.79l39.73.29C1096.52,327.67,1050.79,363,997.11,363H877.76" />
    <path d="M1905.6,451.38a29.26,29.26,0,0,0-21.14,9,30.53,30.53,0,0,0-8.38,21.44,30,30,0,1,0,29.52-30.43m-17.23,48.23a25.14,25.14,0,0,1-7.8-17.91,26,26,0,0,1,7.18-18.24,25.56,25.56,0,1,1,18.77,43.33,24.78,24.78,0,0,1-18.15-7.18" />
    <path d="M1900.48,465.73h5.68c2.74,0,7.64.2,7.73,6.33.13,6.53-5.17,6.73-7.13,6.83h-6.28V465.73m0,16.81h7c4.81,0,6.33,3.1,6.33,6.8,0,2.39.36,7,1.28,9.23h4.71v-.81c-1,0-1.33-1.59-1.5-2.3a57.07,57.07,0,0,1-.69-8c-.68-5-1.84-6.43-6.55-7v-.07c4.27-.54,6.78-3.55,7-7.84.28-8.46-4.62-10.41-12.31-10.41l-9.38-.12.13,36.56h4Z" />
  </g>
</svg>
