<svg class="logo-bbi" width="75" height="82" xmlns="http://www.w3.org/2000/svg" viewBox="0 0 150.05 163.68">
  <g fill="#7c7eaa">
    <path d="M57.77,54.27a26.69,26.69,0,0,1-.27,53.37H14.16V105.4A16.65,16.65,0,0,0,30.82,88.75V27.59a26.68,26.68,0,1,1,27,26.68h0" />
    <path d="M110.87,27.09A26.68,26.68,0,0,0,84.18.41l58.3-.4h1.28V2.24A16.65,16.65,0,0,0,127.1,18.89v88.25H84.18a26.68,26.68,0,0,0,.55-53.36h-.55a26.69,26.69,0,0,0,26.69-26.69" />
    <path d="M13.67,131a9.3,9.3,0,0,1,3.46,1.43,6.25,6.25,0,0,1,2,2.31,6.62,6.62,0,0,1,.64,2.9,6.51,6.51,0,0,1-1,3.51,6.73,6.73,0,0,1-3.09,2.51,13.5,13.5,0,0,1-5.39,1v0H.07V118.1h9.1v0a12.8,12.8,0,0,1,5.11,1,6.4,6.4,0,0,1,2.9,2.44,6.51,6.51,0,0,1-.14,6.93A6.94,6.94,0,0,1,13.67,131ZM8.75,119.21h-5v11.42h5a5.52,5.52,0,0,0,2.86-.77,5.71,5.71,0,0,0,2.07-2.07,5.72,5.72,0,0,0,0-5.73A5.71,5.71,0,0,0,11.61,120,5.44,5.44,0,0,0,8.75,119.21Zm1.44,24.31a5.74,5.74,0,0,0,3-.79,6.09,6.09,0,0,0,2.14-2.14,5.94,5.94,0,0,0,0-5.92,6,6,0,0,0-2.14-2.14,5.74,5.74,0,0,0-3-.79H3.75v11.78Z" />
    <path d="M29.87,118.1H45.12v1.11H30.82v12H43.57v1.11H30.82v11.23h14.3v1.11h-18V118.1Z" />
    <path d="M58.76,118.1h2.63l9.69,26.53H67.31l-4.41-12H53.45l-4.39,12H47.88l9.69-26.53h1.19Zm-4.9,13.41h8.66l-4.33-11.84Z" />
    <path d="M93.51,135.75V118.1h1.11v17.65a8.55,8.55,0,0,1-1.21,4.46,9.17,9.17,0,0,1-3.21,3.22,8.55,8.55,0,0,1-4.47,1.2,11.62,11.62,0,0,1-4.88-1,9.4,9.4,0,0,1-3.65-2.85,8.2,8.2,0,0,1-1.62-4.36h0V118.1H79.3v17.65a10.18,10.18,0,0,0,.72,3.9,6.48,6.48,0,0,0,2.15,2.82,5.89,5.89,0,0,0,3.56,1.05,7.52,7.52,0,0,0,3.92-1.05,8,8,0,0,0,2.81-2.82A7.45,7.45,0,0,0,93.51,135.75Z" />
    <path d="M109.14,118.1h12.4v1.11h-8.72v25.42h-3.68V119.21h-8.72V118.1Z" />
    <path d="M148.74,118.1h1.31L140.15,134v10.67h-3.68V134l-9.92-15.87h4.35l8.92,14.28Z" />
  </g>
  <g fill="#76777a" stroke="#76777a" stroke-miterlimit="10" stroke-width="0.1">
    <path d="M.05,163.43V154H3.66a2.83,2.83,0,0,1,2,.69,2.24,2.24,0,0,1,.74,1.74,1.87,1.87,0,0,1-1.16,1.89v0a2.06,2.06,0,0,1,1.07.79,2.37,2.37,0,0,1,.45,1.48,2.64,2.64,0,0,1-.82,2,3.69,3.69,0,0,1-2.5.73ZM1.16,158h2.3c1.23,0,1.84-.49,1.84-1.48a1.29,1.29,0,0,0-.49-1.09A2.12,2.12,0,0,0,3.45,155H1.16Zm0,4.41H3.29A3,3,0,0,0,5.06,162a1.52,1.52,0,0,0,.59-1.34,1.44,1.44,0,0,0-.56-1.28A3.28,3.28,0,0,0,3.32,159H1.16Z" />
    <path d="M14.26,163.43v-4L11.16,154H12.4l2.39,4.37h0L17.2,154h1.24l-3.1,5.44v4Z" />
    <path d="M30.55,163.43V154h1.11v9.41Z" />
    <path d="M38.15,163.43V154h1.58l2.94,7.22h0l3-7.22h1.57v9.41H46.12v-7.85h0l-3.23,7.85H42.5l-3.23-7.85h0v7.85Z" />
    <path d="M52.62,163.43,56,154H57.1l3.38,9.41H59.35l-.69-1.84H54.44l-.69,1.84Zm2.15-2.81h3.56l-1.77-5.11h0Z" />
    <path d="M69.07,163.63a3.75,3.75,0,0,1-2.77-1.14,4,4,0,0,1-.89-1.57,7.54,7.54,0,0,1-.32-2.29,5.09,5.09,0,0,1,1.16-3.55,3.7,3.7,0,0,1,2.82-1.26,3.35,3.35,0,0,1,2.33.86,3.75,3.75,0,0,1,1.19,2.24l-1.12.21q-.47-2.25-2.4-2.25a2.5,2.5,0,0,0-2,1,4.18,4.18,0,0,0-.8,2.79,4.77,4.77,0,0,0,.78,2.94,2.47,2.47,0,0,0,2,1,2.38,2.38,0,0,0,1.84-.73,2.8,2.8,0,0,0,.64-2H69.19v-1h3.48v.91a3.92,3.92,0,0,1-1,2.86A3.44,3.44,0,0,1,69.07,163.63Z" />
    <path d="M78.62,163.43V154h1.11v9.41Z" />
    <path d="M86.22,163.43V154h1.21l4.29,7.57h0V154h1.11v9.41H91.68l-4.32-7.57h0v7.57Z" />
    <path d="M98.26,163.43l3.38-9.41h1.09l3.39,9.41H105l-.7-1.84h-4.22l-.68,1.84Zm2.15-2.81H104l-1.77-5.11h0Z" />
    <path d="M112.43,163.43V155h-2.91v-1h6.92v1h-2.9v8.39Z" />
    <path d="M122,163.43V154h1.11v9.41Z" />
    <path d="M133,163.63a3.82,3.82,0,0,1-1.48-.28,3.88,3.88,0,0,1-1.26-.86,4,4,0,0,1-.91-1.55,7,7,0,0,1-.34-2.3,5.06,5.06,0,0,1,1.17-3.56,3.71,3.71,0,0,1,2.82-1.26,3.62,3.62,0,0,1,2.78,1.29A5.2,5.2,0,0,1,137,158.7a7.12,7.12,0,0,1-.33,2.28,3.59,3.59,0,0,1-2.14,2.37A3.81,3.81,0,0,1,133,163.63Zm0-1a2.41,2.41,0,0,0,2-1,4.65,4.65,0,0,0,.77-2.9,4.43,4.43,0,0,0-.79-2.84,2.43,2.43,0,0,0-2-1,2.53,2.53,0,0,0-2,1,4.27,4.27,0,0,0-.79,2.8,4.73,4.73,0,0,0,.77,2.94A2.45,2.45,0,0,0,133,162.58Z" />
    <path d="M142.86,163.43V154h1.21l4.29,7.57h0V154h1.1v9.41h-1.17L144,155.86h0v7.57Z" />
  </g>
</svg>
