<svg class="logo-bioionic" width="79" height="18" xmlns="http://www.w3.org/2000/svg" viewBox="0 0 551.15 124.49">
	<path fill="currentColor" d="M0,31a4.15,4.15,0,0,1,4.05-4.16H31c8.31,0,14.86,2.39,19,6.44a16.17,16.17,0,0,1,4.67,11.64v.21c0,9.45-5.82,14.33-11.53,16.82,8.62,2.6,15.58,7.59,15.58,17.57v.2c0,12.47-10.49,19.85-26.39,19.85H4.05a4.15,4.15,0,0,1-4-4.16ZM29.61,59.27c9.87,0,16.73-4.48,16.73-13v-.21c0-7.17-5.71-11.84-16.11-11.84H8.1v25ZM32.52,92.2c11,0,17.87-4.88,17.87-13V79c0-7.89-6.65-12.46-19.32-12.46H8.1V92.2ZM75.75,30.49a4.1,4.1,0,1,1,8.2,0V95.94a4.1,4.1,0,1,1-8.2,0ZM102,63.42v-.21c0-20.05,15.07-37.61,37.19-37.61s37,17.35,37,37.4v.21c0,20.05-15.06,37.61-37.19,37.61S102,83.47,102,63.42Zm65.66,0v-.21c0-16.52-12.05-30-28.67-30S110.55,46.48,110.55,63v.21c0,16.52,12,30,28.67,30S167.69,79.94,167.69,63.42ZM214.57,5a5,5,0,1,0-5,5,5,5,0,0,0,5-5m3.64,38a8.66,8.66,0,1,0-8.65,8.66,8.66,8.66,0,0,0,8.65-8.66m0,38.38a8.66,8.66,0,1,0-8.65,8.66,8.66,8.66,0,0,0,8.65-8.66m-3.64,38a5,5,0,1,0-5,5,5,5,0,0,0,5-5m28.33-89a4.1,4.1,0,1,1,8.2,0V95.94a4.1,4.1,0,1,1-8.2,0Zm26.28,32.93v-.21c0-20.05,15.07-37.61,37.19-37.61s37,17.35,37,37.4v.21c0,20.05-15.06,37.61-37.19,37.61S269.18,83.47,269.18,63.42Zm65.66,0v-.21c0-16.52-12-30-28.67-30S277.7,46.48,277.7,63v.21c0,16.52,12.05,30,28.67,30S334.84,79.94,334.84,63.42Zm25.88-32.83a4.12,4.12,0,0,1,4-4.05h1.14c1.87,0,3,.93,4.16,2.39l44.15,56.31V30.38a4,4,0,1,1,8,0V96a3.69,3.69,0,0,1-3.74,3.85h-.41c-1.77,0-3-1-4.26-2.5L368.72,39.74V96a4,4,0,1,1-8,0Zm82.81-.1a4.11,4.11,0,1,1,8.21,0V95.94a4.11,4.11,0,1,1-8.21,0Zm26.28,32.93v-.21c0-20.57,15.38-37.61,36.78-37.61,11.74,0,19.22,3.85,26,9.46a4.45,4.45,0,0,1,1.66,3.32,4.21,4.21,0,0,1-4.15,4,4.94,4.94,0,0,1-2.7-.93c-5.61-5-12-8.31-20.88-8.31-16.1,0-28.16,13.09-28.16,29.81v.21c0,16.83,12.16,30,28.16,30,9,0,15.37-3.12,21.61-8.83a3.72,3.72,0,0,1,2.59-1.15,4.09,4.09,0,0,1,3.95,3.95,3.89,3.89,0,0,1-1.34,2.91c-7.18,6.54-15.07,10.7-27,10.7C485.29,100.82,469.81,84.3,469.81,63.42Zm66.5-39.83v-.05a7.42,7.42,0,1,1,14.84,0v0A7.47,7.47,0,0,1,543.73,31a7.39,7.39,0,0,1-7.42-7.42m14-.05v0a6.52,6.52,0,0,0-6.56-6.61,6.59,6.59,0,0,0-6.58,6.65v.05a6.57,6.57,0,1,0,13.14-.05m-9.46-3.92h3.41c1.66,0,2.89.81,2.89,2.39a2.27,2.27,0,0,1-1.74,2.3l2,2.86h-1.75l-1.79-2.6h-1.58v2.6h-1.44Zm3.28,3.75c1,0,1.53-.51,1.53-1.24s-.55-1.23-1.53-1.23h-1.84v2.47Z" />
</svg>
