<svg class="logo-curls" width="44" height="44" xmlns="http://www.w3.org/2000/svg" viewBox="0 0 44 44">
  <g fill="currentColor">
    <path d="M11.36,26.05a5.14,5.14,0,0,1,.39.86l.44-.18a2.85,2.85,0,0,0,.89-.52,3.59,3.59,0,0,0,.73-.92,1.22,1.22,0,0,0,0-1h0l0-.05,0,0a3.39,3.39,0,0,0-1.65-1.44,2.63,2.63,0,0,0-.95-.16,2.73,2.73,0,0,0-1.12.21,2.87,2.87,0,0,0-.9.59,3.07,3.07,0,0,0-.25.26A7.36,7.36,0,0,1,11.36,26.05Z"/>
    <path d="M17,11.19c-.63,1.38.26,2.75,1.21,3.72a13,13,0,0,1,1-1.27l.75-.85.13-.15.1-.13c.11-.13.22-.26.32-.4a7.57,7.57,0,0,0,.55-.84v0a.87.87,0,0,0,.07-.17L20.94,11l-.05,0a13.07,13.07,0,0,0-2.5-.15,6.56,6.56,0,0,1-1.18-.1A3.25,3.25,0,0,0,17,11.19Z"/>
    <path d="M11.4,27a5.58,5.58,0,0,0-1.54-1.88,8.48,8.48,0,0,0-1.33-.92v0a4.92,4.92,0,0,0-.45,1.08,6.06,6.06,0,0,0-.21,1.19,5,5,0,0,0,0,.87A9.58,9.58,0,0,0,11.4,27Z"/>
    <path d="M17.16,6.34l-.1.19c0,.13-.1.27-.14.4a.14.14,0,0,0,0,.06V7a2.34,2.34,0,0,0,0,.26h0a.88.88,0,0,0,0,.2.42.42,0,0,0,0,.1l0,0a.63.63,0,0,0,.11.12l.09.07.12.06a1.39,1.39,0,0,0,.26.1l.18,0,.14,0,.51.06A25.44,25.44,0,0,0,22,5.41L22,5.32A4.34,4.34,0,0,1,20.68.72c-.29.68-.6,1.36-.95,2A7.52,7.52,0,0,1,18.92,4l-.77.93c-.29.37-.58.75-.83,1.14C17.27,6.16,17.21,6.25,17.16,6.34Z"/>
    <path d="M21.93,1.84a.16.16,0,0,1,0,.06,1.67,1.67,0,0,0,.08.2,2.81,2.81,0,0,0,.18.28,2.56,2.56,0,0,0,.56.62l.43.31a3.38,3.38,0,0,0,.13-.42A8.3,8.3,0,0,0,23.48.17a8.21,8.21,0,0,0-.8.63c-.12.12-.25.24-.36.37s-.07.08-.07.07a.76.76,0,0,1-.08.11c-.08.11-.16.23-.23.35.06-.09,0,0,0,.13Z"/>
    <path d="M4.41,23.86a1.21,1.21,0,0,1-.12.13l-.06.08v0h0a1.62,1.62,0,0,0-.1.18s0,0,0,.06l0,.07c0,.05,0,.1,0,.15s0,.05,0,.07a1.7,1.7,0,0,0,0,.22V25a1.48,1.48,0,0,0,0,.21s0,.09,0,.11l0,.11,0,.08,0,.06a1.28,1.28,0,0,0,.19.34,2.21,2.21,0,0,0,.69.64,4.29,4.29,0,0,0,.89.43c0-.1,0-.21,0-.31a5.71,5.71,0,0,1,.24-1.43A4.83,4.83,0,0,1,6.71,24c.08-.13.17-.25.26-.37a5,5,0,0,0-1.09-.16A2.06,2.06,0,0,0,4.41,23.86Z"/>
    <path d="M24.63.08c0,.18,0,.34,0,.45a9,9,0,0,1-.5,3.22l0,.07A13.73,13.73,0,0,1,27,5.44a5.13,5.13,0,0,1,1.47,4.71,3.82,3.82,0,0,1-.89,1.8c-.43.43-.9.81-1.36,1.22a7.39,7.39,0,0,0-2.52,3s0,0,0,0a6.59,6.59,0,0,1,1.63-2.62c.4-.46.82-.89,1.19-1.37a11.68,11.68,0,0,0,.91-1.41,2.67,2.67,0,0,0,.32-.73s0-.21,0-.12a1.23,1.23,0,0,0,0-.19V9.41a2.74,2.74,0,0,0-1-1.52c-1.06-1-2.51-1.3-3.77-1.95-.13.17-.27.34-.42.5a11.9,11.9,0,0,1-2,1.58l-.4.26c1.35.21,2.78.72,3,2.2s-1,2.86-2,3.86c-.49.49-1,1-1.5,1.42l-.25.23,1,.74c.62.46,1.23.89,1.88,1.31.06,0,0,.2,0,.16a30.31,30.31,0,0,1-3.17-1.85,3.16,3.16,0,0,0-.58.83s-.06.14-.06.16l-.06.18v.05a.88.88,0,0,0,0,.16v.32c0-.15,0,.14,0,.2a1.35,1.35,0,0,0,.19.51,4.72,4.72,0,0,0,.41.48c.75.76,1.62,1.37,2.33,2.17a3.56,3.56,0,0,1,.77,3s0,0,0,0A3.16,3.16,0,0,0,21.69,23a4.23,4.23,0,0,0-.81-1c-.72-.77-1.61-1.33-2.37-2a3.27,3.27,0,0,1-1.32-2.61,4.74,4.74,0,0,1,.68-1.95,5.91,5.91,0,0,1-1.62-2.57,3.26,3.26,0,0,1,.15-2.29,3.46,3.46,0,0,1-.72-.36,3.47,3.47,0,0,1-1.43-2.73c-.05-2.14,1.32-3.74,2.57-5.32A8,8,0,0,0,17.63.8l.19-.36,0-.06,0-.07h0A22,22,0,1,0,24.63.08Zm12.75,26.4H38v.12h-.26v.67h-.12V26.6h-.26Zm.84,2.3a.43.43,0,0,1-.14.24,4.23,4.23,0,0,1-.58.48,4.38,4.38,0,0,1-.73.43,4,4,0,0,1-.85.28,3.08,3.08,0,0,1-.61.05l-.31,0-.27,0-.29-.06a1.42,1.42,0,0,1-.44-.23,2.49,2.49,0,0,1-.38-.34,3.05,3.05,0,0,1-.29-.36L33.17,29l-.33.3a3.18,3.18,0,0,1-.52.38,3.27,3.27,0,0,1-.68.31,2.5,2.5,0,0,1-.85.11,1.31,1.31,0,0,1-.52-.11,1.87,1.87,0,0,1-.46-.29,2.4,2.4,0,0,1-.39-.44,3.88,3.88,0,0,1-.31-.53.47.47,0,0,1-.17.23c-.09.08-.23.18-.4.3a5.41,5.41,0,0,1-.59.35,4.63,4.63,0,0,1-.68.29,2.25,2.25,0,0,1-.71.12.93.93,0,0,1-.47-.13.86.86,0,0,1-.28-.29,1.68,1.68,0,0,1-.16-.39q0-.21-.09-.39c0-.12,0-.23-.07-.32s-.06-.14-.11-.16a.22.22,0,0,0-.16,0l-.22.06a2.36,2.36,0,0,1-.76.12,1.08,1.08,0,0,1-.28,0,.5.5,0,0,1-.19-.11.44.44,0,0,1-.12-.15.61.61,0,0,1,0-.12l-.34.38-.13.13a.27.27,0,0,1-.08.17c-.06.06-.15.15-.26.28a3.35,3.35,0,0,1-.47.4,3.17,3.17,0,0,1-.69.34,2.68,2.68,0,0,1-.93.13,1,1,0,0,1-.43-.09,1.57,1.57,0,0,1-.37-.22,1.83,1.83,0,0,1-.3-.32,4,4,0,0,1-.22-.34,1.06,1.06,0,0,1-.18.33,1.3,1.3,0,0,1-.31.31,1.38,1.38,0,0,1-.42.21,1.49,1.49,0,0,1-.53.06.94.94,0,0,1-.45-.11,1.54,1.54,0,0,1-.34-.28,3.75,3.75,0,0,1-.24-.36l-.17-.36c0-.1-.09-.2-.13-.27s-.08-.09-.11-.09a.29.29,0,0,0-.16,0l-.15.08,0,0a.48.48,0,0,1-.11.15L15.7,29a7.29,7.29,0,0,1-.62.6,9.8,9.8,0,0,1-.87.7,7.23,7.23,0,0,1-1.08.66,7.43,7.43,0,0,1-1.27.49,5.09,5.09,0,0,1-1.41.17,5.32,5.32,0,0,1-1.72-.31,4.55,4.55,0,0,1-1.31-.76,4,4,0,0,1-.91-1.11A5,5,0,0,1,6,28.19a4.17,4.17,0,0,1-2-1.12A3,3,0,0,1,4.18,23c1-.8,2.38-.49,3.44,0l0,0A4.4,4.4,0,0,1,9,22.17a4.81,4.81,0,0,1,1.65-.24,6.29,6.29,0,0,1,1.15.13,4.76,4.76,0,0,1,.73.25l.13.05a2.2,2.2,0,0,1,.91.63,2.79,2.79,0,0,1,.79,1.64,2.74,2.74,0,0,1-1,2.52,5.3,5.3,0,0,1-1.42.78v0a2.66,2.66,0,0,1-.2,1,2.92,2.92,0,0,1-.6.76s-.06,0,0-.07a2.72,2.72,0,0,0,.49-1.08,2.2,2.2,0,0,0,.06-.5,10.45,10.45,0,0,1-3.06.45H8.1c0,.11.08.22.13.33a3.17,3.17,0,0,0,.59.91,2.82,2.82,0,0,0,.89.63,2.92,2.92,0,0,0,1.18.25,4.26,4.26,0,0,0,1.19-.13,6.83,6.83,0,0,0,1.1-.39,7.74,7.74,0,0,0,1-.51c.29-.19.55-.38.77-.55a5.48,5.48,0,0,0,.53-.46v0a.39.39,0,0,1,.1-.22c.1-.1.21-.24.35-.4a4.91,4.91,0,0,1,.43-.48,2.55,2.55,0,0,1,.48-.4.82.82,0,0,1,.49-.16.35.35,0,0,1,.3.16,1.81,1.81,0,0,1,.23.37q.11.22.21.48c.06.17.12.33.19.48a2.12,2.12,0,0,0,.2.37.31.31,0,0,0,.23.14.38.38,0,0,0,.22-.06.46.46,0,0,0,.14-.17.65.65,0,0,0,.07-.21.82.82,0,0,0,0-.21,2.12,2.12,0,0,1-.09-.31c0-.11,0-.2-.06-.28a.5.5,0,0,1,.06-.32.76.76,0,0,1,.24-.23A1,1,0,0,1,20,27a.93.93,0,0,1,.35.16.73.73,0,0,1,.24.32l.23.6a4.5,4.5,0,0,0,.24.49,1.36,1.36,0,0,0,.25.34.37.37,0,0,0,.28.13.64.64,0,0,0,.36-.09,2.22,2.22,0,0,0,.37-.21l.18-.13a.24.24,0,0,1,.09-.14l.23-.26c.1-.11.21-.22.31-.34l.29-.34.19-.23a.59.59,0,0,1,.21-.16.27.27,0,0,1,.19,0,.15.15,0,0,1,.12.11.32.32,0,0,1,0,.22.57.57,0,0,0,0,.26.26.26,0,0,0,.15.19.62.62,0,0,0,.37,0,2.14,2.14,0,0,0,.62-.21l.61-.31.36-.19.24-.09a1,1,0,0,1,.26,0c.08,0,.13.05.17.16a1.87,1.87,0,0,1,.09.39c0,.16,0,.32,0,.5s0,.34.06.49a1.57,1.57,0,0,0,.11.38c.05.09.1.14.18.14a.9.9,0,0,0,.35-.05,2.87,2.87,0,0,0,.37-.15l.35-.2.07-.06h0a.38.38,0,0,1,.15-.21l.15-.13.13-.13A6.26,6.26,0,0,1,28.61,27a7.64,7.64,0,0,1-.1-1.26,8,8,0,0,1,.12-1.21,4.3,4.3,0,0,1,.35-1,2.12,2.12,0,0,1,.59-.75,1.47,1.47,0,0,1,.84-.34,1.94,1.94,0,0,1,.87.09,1,1,0,0,1,.51.4,1.35,1.35,0,0,1,.22.63,2.64,2.64,0,0,1,0,.78,5.28,5.28,0,0,1-.24.88,8.82,8.82,0,0,1-.41.88,9.67,9.67,0,0,1-.51.83,7,7,0,0,1-.57.69,3.36,3.36,0,0,0,.19.61,2.61,2.61,0,0,0,.27.5,1.18,1.18,0,0,0,.34.33.8.8,0,0,0,.42.13,2,2,0,0,0,.5-.06,1.78,1.78,0,0,0,.4-.17,2.7,2.7,0,0,0,.33-.22l.06,0a.5.5,0,0,1,.14-.16,3.92,3.92,0,0,0,.38-.35l.4-.41.23-.2a1.82,1.82,0,0,1-.83-.93,1.55,1.55,0,0,1,1.34-1.88,1.15,1.15,0,0,1,.85,2v0a1,1,0,0,0,.13-.92.81.81,0,0,0-.51-.39,1.07,1.07,0,0,0-1.23.53.55.55,0,0,0,0,.42c.16.43,3.41,1.49,2.86,3v0a1.7,1.7,0,0,0,.6-.2,3.57,3.57,0,0,0,.68-.5.37.37,0,0,1,.23-.11h0a.18.18,0,0,1,.15.07A.25.25,0,0,1,38.22,28.78Zm.67-1.51V26.6h0l-.27.67h-.08l-.26-.67h0v.67h-.12v-.79h.2l.22.55.24-.55H39v.79Z"/>
    <path d="M34.84,28.44l-.32-.33-.07-.05a.45.45,0,0,0-.19-.06.46.46,0,0,0-.3.14l-.34.34a2.25,2.25,0,0,0,.17.21,2.16,2.16,0,0,0,.27.25,1,1,0,0,0,.33.15.41.41,0,0,0,.34,0,.31.31,0,0,0,.19-.16.41.41,0,0,0,0-.22A.82.82,0,0,0,34.84,28.44Z"/>
    <path d="M31,25.53l.22-.53.08-.25a2.82,2.82,0,0,0,.14-.69,1,1,0,0,0-.09-.5.43.43,0,0,0-.36-.22h0a.41.41,0,0,0-.3.13,1.25,1.25,0,0,0-.25.4,3.81,3.81,0,0,0-.19.62,5.55,5.55,0,0,0-.11.76,5.79,5.79,0,0,0,0,.84,7,7,0,0,0,.05.8,5.19,5.19,0,0,0,.43-.6A6.31,6.31,0,0,0,31,25.53Z"/>
  </g>
</svg>