<svg class="logo-goody" width="59px" height="40px" viewBox="0 0 59 40" xmlns:xlink="http://www.w3.org/1999/xlink">
    <path fill="currentColor" d="M58.17767,28.1162435 C58.17767,28.0733699 58.1637616,28.0412148 58.1363277,28.0193952 C58.1086385,27.998086 58.0698482,27.9873676 58.0208498,27.9873676 L57.8295776,27.9873676 L57.8295776,28.2479265 L58.0256986,28.2479265 C58.074697,28.2479265 58.1119561,28.2360597 58.1384969,28.2121985 C58.1643996,28.1880822 58.17767,28.1582238 58.17767,28.1209647 L58.17767,28.1162435 Z M58.3231339,28.2848029 C58.2872783,28.3292076 58.2412148,28.3623836 58.1848156,28.3838203 L58.4010974,28.7020544 L58.1729488,28.7020544 L57.9838459,28.4163583 L57.9795075,28.4163583 L57.8295776,28.4163583 L57.8295776,28.7020544 L57.6332015,28.7020544 L57.6332015,27.8142146 L58.0278678,27.8142146 C58.1460253,27.8142146 58.2375144,27.8467526 58.3022075,27.9113181 C58.3515886,27.9603164 58.3759602,28.0250096 58.3759602,28.1051423 L58.3759602,28.1094807 C58.3759602,28.1819574 58.3582238,28.2402705 58.3231339,28.2848029 L58.3231339,28.2848029 Z M58.7152482,28.2779125 C58.7152482,28.176343 58.6959806,28.0807707 58.6583386,27.9906852 C58.6206967,27.9009825 58.569274,27.8222534 58.5040704,27.7555187 C58.4383565,27.6886564 58.3609034,27.63583 58.2710731,27.5975501 C58.1813704,27.5591425 58.0836289,27.539875 57.9795075,27.539875 C57.8730892,27.539875 57.7749649,27.5595253 57.6852622,27.5985709 C57.5953043,27.637744 57.5173408,27.6905704 57.4508613,27.7576879 C57.3851474,27.8245502 57.3330866,27.9035345 57.2950619,27.9940028 C57.2578027,28.0848539 57.2390456,28.1811918 57.2390456,28.2823785 L57.2390456,28.2870997 C57.2390456,28.3886691 57.2574199,28.4842414 57.2939135,28.5743269 C57.3313002,28.6644124 57.3825954,28.7426311 57.4486921,28.8094934 C57.5147888,28.8766109 57.5930075,28.9290545 57.6827102,28.967462 C57.7727957,29.0062524 57.870282,29.0253924 57.9746587,29.0253924 C58.0805665,29.0253924 58.1788184,29.0054868 58.2689039,28.9663136 C58.3586066,28.9271405 58.4364425,28.8739314 58.502922,28.8071966 C58.5688912,28.7404619 58.6206967,28.6617328 58.6583386,28.5708817 C58.6959806,28.4801582 58.7152482,28.3838203 58.7152482,28.2823785 L58.7152482,28.2779125 L58.7152482,28.2779125 Z M58.3069287,27.5133342 C58.4084981,27.5572285 58.4962868,27.6166901 58.5704224,27.6921016 C58.6458339,27.7673855 58.7045298,27.855557 58.7472757,27.9563609 C58.7901493,28.0567819 58.8119689,28.164221 58.8119689,28.2779125 L58.8119689,28.2823785 C58.8119689,28.3963251 58.7901493,28.5037642 58.7472757,28.6041853 C58.7045298,28.7049892 58.6450683,28.7935434 58.5696568,28.8692102 C58.49399,28.9456425 58.4054358,29.0062524 58.3034835,29.0504019 C58.2010208,29.0951895 58.0916677,29.1176471 57.9746587,29.1176471 C57.8576496,29.1176471 57.7488069,29.0955723 57.6472375,29.0515503 C57.5457956,29.0080388 57.4574965,28.9485773 57.3832334,28.8732934 C57.3087151,28.7976266 57.2497639,28.7093275 57.2065076,28.6089065 C57.1637616,28.5082302 57.1419421,28.4007911 57.1419421,28.2870997 L57.1419421,28.2823785 C57.1419421,28.1689422 57.1637616,28.0615031 57.2065076,27.9606992 C57.2497639,27.860023 57.3087151,27.7718515 57.3843818,27.6952916 C57.4596657,27.6196249 57.54822,27.5591425 57.6505551,27.5144826 C57.7528901,27.4698226 57.8623708,27.4477479 57.9795075,27.4477479 C58.0961337,27.4477479 58.205104,27.4694398 58.3069287,27.5133342 L58.3069287,27.5133342 Z M54.1234401,29.4381779 C48.4918208,34.3404364 49.9692995,39.1768534 50.4070946,38.831951 C52.4870997,37.1920378 54.1411765,29.5004466 54.1234401,29.4381779 L54.1234401,29.4381779 Z M58.2685211,11.8703586 C57.8071201,16.1080771 56.5382672,32.1526094 53.2131428,38.3736124 C52.8168177,39.1148399 52.2385352,39.5038918 51.7005742,39.65816 C50.9763175,39.865765 50.6778614,39.8394794 49.8793416,39.5534005 C49.4328697,39.4800306 49.1901748,39.4152099 49.1369657,39.3856067 C47.5256348,38.3098124 48.4488197,32.358428 53.6836034,27.7763175 C53.861988,27.6202629 54.1526605,27.4968738 54.3669006,26.4839862 C54.697767,24.9192293 55.1573817,22.3020288 55.1336481,22.2192165 C54.1691208,24.7125175 52.9113691,27.311216 52.4354217,27.4477479 C52.2284548,27.5072094 51.9488835,27.522011 51.6194207,27.4130407 C49.4874825,26.7081792 49.683731,25.4260559 51.4878653,13.2377185 C51.5331632,12.9314789 51.9564119,12.8435626 52.3797882,12.8674238 C52.8379992,12.8933265 53.0509634,13.0507847 53.0481562,13.2060738 C52.9992854,15.870869 52.0611714,24.9711624 52.0791629,25.033176 C55.402501,19.6614776 56.4308281,12.129769 56.8609672,11.6469312 C56.875386,11.6308536 57.6554039,11.4426439 58.2685211,11.8703586 L58.2685211,11.8703586 Z M46.4868445,15.5329846 C46.2190124,15.4944494 45.9340819,15.6271532 45.8684956,15.6896772 C44.1645272,17.1970142 42.888146,20.1740462 42.2239888,23.7204287 C41.9407171,25.1657522 41.9048616,25.812811 41.9890775,26.7164731 C41.997499,26.8079622 42.0073242,26.9021309 42.0181702,27 L42.0438178,27.0173536 L42.3347454,27.0173536 C43.5755263,26.4605078 45.6435371,24.6200077 47.0023478,19.9818808 C48.3611586,15.3438816 46.4868445,15.5329846 46.4868445,15.5329846 L46.4868445,15.5329846 Z M36.9206839,17.2771469 C36.9206839,17.2771469 36.888784,17.2474161 36.837744,17.3047084 C36.237642,17.9762664 36.0139594,19.7030752 36.5862447,20.0715835 C36.6934286,20.162307 36.8522904,20.1159883 36.8522904,20.1159883 C36.8943984,20.1090979 36.9338267,20.0815363 36.9476075,20.0359832 C37.2808983,18.9318617 37.0942197,17.4931734 36.9206839,17.2771469 L36.9206839,17.2771469 Z M36.711803,21.0015312 C36.711803,20.9605716 36.6388159,20.9483221 36.5445196,20.8985581 C36.5445196,20.8985581 35.1310961,20.3835651 34.5644252,19.9816256 C34.2163328,19.6914636 34.0055378,19.3146612 33.9076688,18.8336098 C33.8548424,18.537323 33.828812,18.6086513 33.828812,18.6086513 C33.7933393,18.657522 32.7466377,20.7464591 31.9294883,24.1984178 C31.3649866,26.5828761 32.1977032,28.7538599 32.2187572,28.7505461 C35.2126324,26.7137935 36.5525584,21.6312364 36.6035983,21.4072987 C36.6035983,21.4072987 36.711803,21.0423631 36.711803,21.0015312 L36.711803,21.0015312 Z M26.3324486,18.9541917 C26.3324486,18.9541917 26.3005487,18.9243333 26.2493811,18.9817532 C25.6491515,19.6531836 25.4255965,21.3801199 25.9978818,21.7486283 C26.1050657,21.8393518 26.2640551,21.7927778 26.2640551,21.7927778 C26.3061631,21.7862703 26.3454638,21.7587087 26.3593722,21.7130279 C26.692663,20.6089065 26.5059844,19.1700906 26.3324486,18.9541917 L26.3324486,18.9541917 Z M26.1236953,22.678576 C26.1236953,22.6374888 26.050453,22.6253668 25.9562843,22.5756029 C25.9562843,22.5756029 24.5426056,22.0606099 23.9761899,21.658798 C23.6278423,21.3683808 23.4173025,20.991706 23.3193059,20.5107822 C23.2666071,20.2143677 23.2405768,20.2856961 23.2405768,20.2856961 C23.205104,20.3345668 22.1584024,22.4235039 21.341253,25.8753349 C20.7767513,28.2600485 21.6093403,30.4309047 21.6303943,30.4274636 C24.6243971,28.3907107 25.9644507,23.3081536 26.0152354,23.0842159 C26.0152354,23.0842159 26.1236953,22.7194079 26.1236953,22.678576 L26.1236953,22.678576 Z M50.207656,15.2305729 C49.8414444,17.458849 47.8388924,30.0613755 47.7756029,30.0713283 C47.712441,30.0814087 47.1984688,30.3790991 46.669695,30.0713283 C46.669695,30.0713283 46.8191145,27.1958658 46.9195355,25.1505678 L46.8547148,24.6200077 C45.5844583,27.9285441 42.4596657,28.506061 42.4596657,28.506061 C42.3346178,28.5180554 42.1918336,28.506061 42.0279954,28.4591042 C41.0290162,28.1727702 40.162358,27.8785249 39.8839352,25.9494705 C39.6999362,24.0319 40.1956616,21.7084343 41.1511293,19.4437923 C40.9809111,19.5942325 40.8235805,19.7291055 40.6929182,19.831313 C40.3295138,20.1264514 39.8961848,20.3893071 39.4318489,20.5923185 L39.1293097,20.7266811 C39.0482838,20.7608779 39.009621,20.7885671 38.9918846,20.8131938 C38.9918846,20.8131938 36.8059717,28.6692612 33.7900217,29.9479393 C33.0420314,30.2278933 32.2615031,29.9742248 31.8700268,29.8203394 C31.4543065,29.6487176 31.0273574,29.534771 30.6540003,29.3653184 C28.1027689,28.2073498 29.5460508,22.5929565 30.062575,21.5378334 C29.6638254,21.959806 28.4150057,22.4464719 28.4036494,22.490111 C28.4036494,22.490111 26.385275,30.0713283 23.2016588,31.6249841 C22.5308664,31.9060865 21.6732678,31.6512696 21.2817915,31.4973842 C20.8660712,31.3256348 20.4508613,31.1829782 20.0655098,31.0423631 C18.0367998,30.3020288 18.6899834,26.0361108 18.7595253,25.6582876 C19.0780145,23.9887712 19.7577389,22.2836545 20.7989537,20.5429373 C21.9428863,18.6346816 23.0766109,17.1672834 24.017277,17.0109736 C24.1433457,16.9900472 24.4443537,17.0119944 24.49718,17.0430011 C24.5912211,17.0982519 24.82626,17.0771979 24.82626,17.0771979 C24.9560291,17.0782187 25.3034835,17.1076943 25.4893965,17.4471099 C25.4893965,17.4471099 25.54822,17.6277912 26.4095189,17.668368 C26.5972183,17.67411 26.9348475,17.7145591 27.1377313,17.7687891 C27.3195611,17.8263366 27.4768917,17.8661478 27.5956871,17.9337757 C28.7282634,18.6032921 28.6441751,20.0560163 28.6486411,20.3572796 C28.6571903,20.5937221 28.679903,20.8273574 28.679903,20.8273574 L28.700957,20.8240398 C28.700957,20.8240398 30.3536302,20.1203267 31.6730126,18.3984943 C32.718821,16.7224703 33.7433201,15.4772234 34.6053847,15.3340564 C34.731581,15.31313 35.032589,15.3349496 35.0852877,15.3659564 C35.179584,15.4212071 35.4144953,15.4001531 35.4144953,15.4001531 C35.5442644,15.4011739 35.8917188,15.4306495 36.0777593,15.7700651 C36.0777593,15.7700651 36.1365829,15.9507465 36.9977542,15.9913232 C37.1857088,15.9970652 37.5232104,16.037642 37.7260942,16.0918719 C37.907924,16.1494194 38.0652546,16.189103 38.18405,16.2567309 C39.3166263,16.9262473 39.2400664,18.5726681 39.237004,18.6803624 C39.221054,19.2227893 39.2722215,19.152099 39.3195611,19.1341074 C41.1960444,18.4209519 44.3643486,14.0026796 45.736685,13.7869083 C46.4032666,13.6820212 47.2431287,13.8937093 47.7364298,14.0098252 C48.7660329,14.3251244 50.9439071,1.06520352 52.6910042,0.165114202 C53.5031772,-0.184509379 54.2551231,0.123006252 54.2619351,0.165114202 C54.2751563,0.249457701 51.5965803,6.78193186 50.207656,15.2305729 L50.207656,15.2305729 Z M16.2590787,35.315044 C16.18405,36.3414572 16.192982,36.9131045 16.236366,37.1869338 C16.2663519,37.3765471 16.6978946,38.0225852 16.3279826,38.0672451 C16.1373485,38.0902131 15.8599464,38.03509 15.2839607,37.8015822 C14.6194207,37.5323466 14.5196376,37.1448258 14.4495853,36.7025648 C14.2695419,35.5653949 14.3870614,33.1722598 14.7842797,29.5474033 L14.8305984,29.0220748 C13.7304326,30.2539237 12.9738931,31.0645655 12.5251244,31.5027434 C10.8653056,33.0176088 9.34354983,33.9039173 7.92974352,34.1085875 C5.71282378,34.4295011 3.75084854,34.0913615 1.75352814,31.9136149 C0.902947556,30.9041725 0.293147888,29.5752201 0.0891157331,27.9461529 C-0.609238229,22.3738676 2.79155289,10.6018885 10.5368636,4.22955212 C17.6800306,-1.64744162 21.4375909,0.409085109 21.9278295,0.914380503 C22.1850708,1.17583259 22.3370422,1.45400026 22.3837438,1.7487559 C22.4370805,2.0857471 22.3430394,2.44596146 22.0983029,2.80860023 C21.885594,3.10131428 21.8009953,3.18374378 21.6949598,3.26094169 C21.3905066,3.40870231 20.8247289,3.48755901 20.8787036,3.26094169 C20.9325507,3.03445196 20.9654715,2.88005614 20.9654715,2.88005614 C21.031951,2.48105142 21.0482838,2.17621539 21.0148526,1.96554804 C20.9982646,1.86027817 20.9638127,1.77937986 20.9294883,1.69848156 C20.7397474,1.31848922 19.9700651,0.780911063 18.5805027,1.31491642 C14.2436391,2.98175322 9.5345668,8.12287865 6.35082302,14.7362511 C4.85382162,17.8227638 3.8687508,20.871507 3.41679214,23.8787801 C3.33614904,24.323338 3.2833227,25.2166645 3.21301518,26.5447237 C3.17575603,27.2629833 3.22590277,27.9890264 3.34929182,28.7680235 C3.67952022,30.853005 4.82255965,32.8749522 6.22513717,32.8161286 C7.92987112,32.7448003 9.7029986,31.5394922 11.6141891,29.704096 C13.0878397,28.2403981 14.3771086,26.5682021 15.4858237,24.7088171 C16.1495981,21.9484497 16.9088171,19.5184382 17.8055889,17.4120199 L17.8631364,17.2301901 L16.3783846,18.3503892 C14.4216409,19.7612607 12.9255327,20.5378334 11.9146867,20.6979712 C11.3041215,20.7946918 10.6878142,20.7196631 10.0481562,20.497129 C9.7021054,20.3576624 9.50700523,20.2585173 9.50700523,20.2158989 C9.50700523,20.0860023 10.2982519,20.1038663 10.4401429,20.1112671 C11.0971545,20.1452086 13.0822253,18.9372209 15.5653184,17.0329208 C17.4345285,15.6142657 18.7331122,14.5452341 19.4366977,13.807707 C19.8077581,13.4251627 20.0207222,13.2513717 20.037055,13.2375909 C20.9624091,12.4636978 21.9260431,13.1078219 21.8884012,13.2375909 C21.8506316,13.3676152 21.5739952,14.3542172 21.2262856,15.2945004 C19.9664923,18.5160138 18.7467653,22.4005359 17.6129131,26.962358 C16.8771724,29.9498533 16.4130917,32.7433967 16.2590787,35.315044 L16.2590787,35.315044 Z"></path>
</svg>