<svg class="logo-goody" width="75" height="38" xmlns="http://www.w3.org/2000/svg" viewBox="0 0 723.3 364.23">
  <g fill="currentColor">
    <path d="M667.18,280.66a9.95,9.95,0,0,0-7.77,0,10,10,0,0,0-5.26,5.28,9.6,9.6,0,0,0-.76,3.81v.06a9.6,9.6,0,0,0,.76,3.81,10.16,10.16,0,0,0,2.09,3.13,9.87,9.87,0,0,0,3.13,2.11,9.64,9.64,0,0,0,3.88.78,9.77,9.77,0,0,0,3.89-.79,10,10,0,0,0,5.26-5.29,9.57,9.57,0,0,0,.76-3.81v0a9.57,9.57,0,0,0-.76-3.81,10,10,0,0,0-2.09-3.13A9.9,9.9,0,0,0,667.18,280.66Zm4.84,9.06v0a9,9,0,0,1-.67,3.42,8.76,8.76,0,0,1-1.85,2.8,8.91,8.91,0,0,1-9.71,1.89A8.42,8.42,0,0,1,657,296a8.62,8.62,0,0,1-1.83-2.78,8.84,8.84,0,0,1-.66-3.4v-.06a8.9,8.9,0,0,1,.67-3.41,8.55,8.55,0,0,1,1.85-2.8,9,9,0,0,1,9.71-1.9,8.53,8.53,0,0,1,2.76,1.87,8.87,8.87,0,0,1,2.5,6.19Zm-4.65.08a3.24,3.24,0,0,0,.63-2.08v-.05a3.13,3.13,0,0,0-.87-2.3,4.42,4.42,0,0,0-3.25-1.14h-4.67v10.51h2.32v-3.38h1.83l2.24,3.38h2.7L665.73,291A3.64,3.64,0,0,0,667.37,289.8Zm-1.72-1.94a1.39,1.39,0,0,1-.46,1.08,1.94,1.94,0,0,1-1.34.42h-2.32v-3.08h2.26a2.15,2.15,0,0,1,1.37.38,1.35,1.35,0,0,1,.49,1.14Z" />
    <path d="M241.28,158.41c2.38,0,2.38-4.3-1.56-3.52-26.44,3.11-41.24,19.46-52.11,35-12.83,18.26-38.55,42.43-72.4,38.91-45.9-5.07-44.35-68.1-15.94-119.49,28,14.8,68.88,18.32,94.55,12.47,42.8-9.73,76.28-34.26,90.31-70C290.34,36.23,293.85,0,241.69,0,188.39,0,132.75,23.39,88,91.86c-18.32-14.39-24.53-33.48-14.8-58,1.55-3.52-2-4.3-3.52-1.19-13.2,24.53-8.18,52.16,12.06,67.69-30,54.49-34.21,126.48,31.56,135.07,28.37,3.46,50.2-9.73,65-23-4.3,7.76-6.85,12-9.67,16.75-19.6,26.12-55.38,98.89-115,98.89-20.37,0-31.95-6.62-31.95-14.71,0-8.47,11.18-12.15,11.18-21.72,0-7.72-7.19-12.14-15.57-12.14-10.79,0-17.18,8.83-17.18,18,0,26.86,30,35,53.92,35,39.94,0,100.19-27.89,129.75-91.55,1.65-3.51,3.12-6.61,4.59-9.64,5.14-10.62,10.51-21.59,16.84-32.89C217.57,176.32,229.63,159.19,241.28,158.41ZM240.14,5.85c31.51,0,32.7,22.56,26.08,40.1-8.59,23.34-40.47,53.31-82.13,63.4-25.67,6.62-57.6,3.16-80.52-7.76C149.47,36.59,204.33,5.85,240.14,5.85Z" />
    <path d="M315.5,166.59c-1.55-.78-2.69,0-.78,2.69,3.52,5.07.78,24.94-7,38.14-14.8,25.3-29.19,39.69-46.32,45.54-12.47,4.29-22.56-1.14-22.2-16.35.41-13.2,8.95-28.78,19.09-41.25,21.43-26.86,38.51-32.65,47.1-35.4,7.4-2.33,21-1.19,24.89,1.19,2,1.14,4.29.78,2.33-2-4.3-5.44-10.09-9-19.46-10.51-11.64-2-41.25,2.74-66.55,32.29-11.28,12.84-21.79,34.62-20.6,53.72,1.55,22.93,20.6,28.41,37.73,24.89,18.32-3.88,38.91-15.16,54.08-39.28,12.11-19.45,16.35-35.45,12.47-44.4C329.11,173.21,321.76,168.92,315.5,166.59Z" />
    <path d="M444.85,175.9c-1.19-2.69-8.59-7-14.8-9.31-1.56-.78-2.75,0-.78,2.69,3.52,5.07.78,24.94-7,38.14C407.48,232.72,393.1,247.11,376,253c-12.47,4.29-22.57-1.14-22.2-16.35.41-13.2,9-28.78,19.09-41.25,21.38-26.86,38.5-32.65,47.1-35.4,7.34-2.33,21-1.19,24.89,1.19,1.91,1.14,4.29.78,2.33-2-4.3-5.44-10.15-9-19.46-10.51-11.7-2-41.25,2.74-66.55,32.29-11.29,12.84-21.79,34.62-20.6,53.72,1.55,22.93,20.6,28.41,37.73,24.89,18.26-3.88,38.91-15.16,54.08-39.28C444.43,200.85,448.73,184.85,444.85,175.9Z" />
    <path d="M723.19,216c-.21-2.33-1.45-2.33-3.78-.16A201.83,201.83,0,0,1,687,242.4Q668.33,255,660.88,257.82c5.69-9.36,14.85-24.94,27.64-46.57s19.4-33.07,20-34.05a1,1,0,0,0,.14-.72l.55-.9c.7-1.06,1.36-2.13,2-3.15s1.59-2.56,2.34-4h0a29.4,29.4,0,0,0,1.91-4.19c.77-2,0-5.07-6.21-14-.78-1.19-2.33-1.55-3.11.78-.52,1.91-4.19,8-9.88,16-2.54,3.57-5.54,7.5-8.8,11.64-12.06,14.81-33.07,36.59-49.84,51.76-5.43,5.07-30,27.22-37.72,21.78-12.06-8.54,29.18-61.48,35-70.79,8.54-13.66,11.64-19.46.78-33.12-1.56-1.92-3.11-1.56-2.75.41,1.56,6.62-7.76,20.6-12.83,28C609.65,191.53,600,204.83,593,216.27c0,0,0,0,0,0a82930360319.39,82930360319.39,0,0,0-.1.1h0c-12.65,12.4-32.82,29.39-44,33-3.89,1.17-13.62,1.17-6.62-13.62,13.62-28.79,32.3-55.25,52.93-85.61,13.62-20,28.4-41.52,43-61.72h0c.79-1.31,1.63-2.68,2.37-3.92a40.47,40.47,0,0,0,4.25-8.1c.77-1.93,0-5-6.18-13.9-.77-1.16-2.31-1.55-3.08.77a41.52,41.52,0,0,1-4,7.33c-18.82,25.6-38.51,54.15-55.74,78.76-18.68,26.08-38.91,50.2-69.27,77.05-4.28,3.51-44.75,41.64-38.13,5.84,5.83-31.91,39.3-67.71,71.6-74.32,5.84-1.17,15.18-1.17,19.07.38,1.94.78,2.72-1.16,1.16-2.33-5-4.67-15.17-6.62-21-6.62-49.42,0-89.89,49.81-89.89,91.84,0,11.68,6.61,18.68,15.56,18.29,8.18,0,26.47-12.06,44-26.85,12.45-10.51,28-25.68,32.3-29.57,1.94-1.95,2.72-.78,1.55.77A239.76,239.76,0,0,0,528.25,230c-7.39,16-4.67,31.13,9.34,30.35,12.52-.72,33-16.46,47.83-29.58a33.39,33.39,0,0,0-1.49,3.91c-3.11,10.87-.78,22.93,9.31,24.89,15.58,2.75,34.62-14,47.51-24.89,12.06-10.5,30.32-27.27,31.51-28.41.47-.47.78-.26.89.15-.47.94-1,1.87-1.56,2.85-3.15,5.64-6.78,11.85-10.87,18.73q-10.25,17.24-24.37,39.59C600.69,285.51,577,300.1,565,311.28s-18.53,21.32-19.88,30,2.64,15.57,11.8,20.34a19.82,19.82,0,0,0,5.54,2.12q20.65,4.11,47.35-27.69,10.41-13,43.22-65.1c8.22-3.26,19.82-10.35,34.67-21.17s25.93-20.18,33.12-27.89c1.35-1.55,2.17-2.8,2.28-3.73A4.55,4.55,0,0,0,723.19,216ZM617.41,297.83c-5.69,9.52-10.14,16.61-13.3,21.47a156.68,156.68,0,0,1-13.2,17A76.45,76.45,0,0,1,574,351.18c-5.54,3.42-10.2,4.76-14,4-4.87-1-6.73-5.49-5.49-13.61s7.56-16.93,19-26.19,29.92-21.48,55.53-36.43C627,282.09,623.15,288.36,617.41,297.83Z" />
  </g>
</svg>
