<svg class="logo-ouidad" width="75" height="22" xmlns="http://www.w3.org/2000/svg" viewBox="0 0 66 18.4">
	<path fill="currentColor" d="M50.83,12.59c-.29,0-.55,0-.79,0-2.43,0-3.59.92-3.59,2.9,0,1.5.69,2.34,1.85,2.34a2.9,2.9,0,0,0,2.53-1.66ZM53,18.31a2,2,0,0,1-2.11-1.66c-.68,1.16-1.92,1.74-3.74,1.74a2.79,2.79,0,0,1-3-2.64c0-2.21,2.27-3.55,6.54-3.55h.13V9.54c0-1.29-.55-1.9-2-1.9s-2.27.9-2.27,1.29c0,.21.74.42.74,1.16a1.11,1.11,0,0,1-1.13,1.24,1.15,1.15,0,0,1-1.21-1.24c0-1.48,1.55-2.82,3.92-2.82a4.89,4.89,0,0,1,2.95.92,2.51,2.51,0,0,1,1.08,2.53V16c0,1.13.27,1.66.79,1.66s.85-.34,1.35-1l.29.26A2.88,2.88,0,0,1,53,18.31M7.82,18c3,0,4.93-3.06,4.93-8.72S10.8.57,7.82.57,2.87,3.65,2.87,9.29s2,8.72,5,8.72M2.16,3A7.36,7.36,0,0,1,7.82.2,7.36,7.36,0,0,1,13.49,3a9.32,9.32,0,0,1,2.13,6.27,9.34,9.34,0,0,1-2.13,6.27,7.39,7.39,0,0,1-5.67,2.82,7.39,7.39,0,0,1-5.66-2.82A9.36,9.36,0,0,1,0,9.29,9.34,9.34,0,0,1,2.16,3m21.47,12.7c-1.06,1.58-2.21,2.35-3.77,2.35a3.11,3.11,0,0,1-3.37-3.29V7.58a5.46,5.46,0,0,0,2.22-.32v8.3c0,1.38.4,2,1.56,2s2.34-.87,3.4-2.58V7.58a5.21,5.21,0,0,0,2.18-.32V17.7h1.33v.37H23.63ZM31.2,7.26A5.58,5.58,0,0,1,29,7.58V17.7H27.63v.37H32.5V17.7H31.2ZM30.07,2.44a1.13,1.13,0,0,0,1.15-1.16A1.15,1.15,0,0,0,30.07.1a1.17,1.17,0,0,0-1.16,1.18,1.15,1.15,0,0,0,1.16,1.16m10.74,13a3.63,3.63,0,0,1-3.4,2.6c-1.82,0-2.48-1.16-2.48-3.66v-3c0-2.34.85-3.53,2.53-3.53,1.43,0,2.67,1,3.35,2.9Zm3.59,2.68v-.37H43V0a4.79,4.79,0,0,1-2.45.63H39.31V1h1.5V9.73a3.8,3.8,0,0,0-3.5-2.42c-2.48,0-4.77,2.4-4.77,5.5,0,3.37,2.1,5.59,5,5.59a3.85,3.85,0,0,0,3.3-2.06v1.74Zm18-2.69A3.64,3.64,0,0,1,59,18c-1.82,0-2.47-1.16-2.47-3.67v-3c0-2.34.84-3.53,2.52-3.53,1.43,0,2.67,1,3.35,2.9ZM66,18.07V17.7H64.62V0a4.69,4.69,0,0,1-2.45.63H60.91V1h1.5V9.72a3.8,3.8,0,0,0-3.5-2.42c-2.48,0-4.77,2.4-4.77,5.51,0,3.37,2.1,5.58,5,5.58a3.85,3.85,0,0,0,3.3-2.06v1.74Z" />
</svg>
