<svg class="logo-solano" width="80" height="18" xmlns="http://www.w3.org/2000/svg" viewBox="0 0 1559.32 353.33">
	<g fill="currentColor">
    <path d="M1375.89,214.88c0-28.06,9.85-62.65,43.41-62.65,25.56-1.44,41.64,26.08,41.64,62.65,0,47-16.08,67.39-42.57,67.39-25,0-42.48-20.37-42.48-67.39m-98.38,5.18c0,85.06,61.5,133.27,140.86,133.27s141-47.28,141-138.45c0-77.45-54-129.12-141.38-129.12-83.69,0-140.43,47.92-140.43,134.3" />
    <path d="M1081.74,131.67V96.91H989.09l-.57,249.61h101.4l.56-132c0-31.72,8.34-51.22,39.5-51.22,28.76,0,35.62,21.84,35.62,46.49L1165,346.52h101.41L1267,192.3c0-68.18-31.73-106.54-99-106.54-38.55,0-63.36,16.08-86.31,45.91" />
    <path d="M796.78,271.39c0-32.26,43.87-24.69,77-40.3,2.36,34-9.3,61.12-44.82,61.12-20,0-32.2-8.59-32.2-20.82m-97.7-94.15h97.55c2.44-21.28,21.43-32.35,35.53-32.35,10.79,0,33.15,2.42,33.15,20.39,0,46.37-181.77-4.72-181.77,108,0,51.58,46.93,80,95.16,80,38,0,63.28-12.71,92-38.81L875,346.52H979.85v-4.77c-13.25-10.43-13.15-23-13.15-37.28v-116c0-59.16-7.28-102.71-128.14-102.71-100.91,0-139.48,38.9-139.48,91.48" />
    <rect x="570.64" width="101.41" height="345.61" />
    <path d="M371.68,216.3c0-28.27,10.1-63.38,44.48-63.38,26.07-1.43,42.47,26.44,42.47,63.38,0,47.57-16.4,68.27-43.42,68.27-25.67,0-43.53-20.7-43.53-68.27m-100.54,5.25c0,85.95,62.88,130.12,144.07,130.12s144-43.09,144-135.37c0-78.18-55.11-130.54-144.49-130.54-85.52,0-143.55,48.35-143.55,135.79" />
    <path d="M7.8,167.66c0,96.16,156.52,64.42,156.52,104.18,0,17.43-16.57,22.22-32.18,22.22-9.72,0-18.52-2.83-24.92-7.54-6.77-5.27-10.61-12.81-10.61-22.7H0c5.46,66.76,69.79,88.31,128.29,88.31,93.56,0,137.45-39.1,137.45-90.73,0-92.85-161.43-69.57-161.43-104.13,0-12.38,11.25-17.52,28.87-17.52,7.72,0,15,1.84,20.37,6.11s8.84,22.23,9.8,30.28h92.14c-5.88-65.82-71.13-90.38-126.78-90.38C75.62,85.76,7.8,104.19,7.8,167.66" />
	</g>
</svg>
