  <svg viewBox="0 0 164 68" preserveAspectRatio="xMinYMid meet"  width="82" height="34" xmlns="http://www.w3.org/2000/svg">
    <g fill="currentColor">
      <path d="M103.624,0.02 C113.644,0.02 118.612,8.012 116.588,20.948 L116.588,20.948 L106.908,20.948 C107.832,14.272 106.572,9.824 103.708,9.824 C101.604,9.824 100.34,11.732 100.34,14.932 C100.34,20.932 103.456,24.552 111.116,30.484 L111.116,30.484 C117.18,35.272 124.252,41.7 124.252,51.996 C124.252,61.8 118.78,67.9 110.024,67.9 C99.412,67.9 94.192,59.576 96.212,46.148 L96.212,46.148 L105.896,46.148 C104.888,53.644 106.4,58.096 109.94,58.096 C112.464,58.096 113.896,56.192 113.896,52.896 C113.896,46.88 110.78,43.256 103.12,37.332 C97.056,32.532 89.984,26.132 89.984,15.84 C89.984,6.02 95.12,0.02 103.624,0.02 Z M88.296,0.988 L88.296,1.016 C86.2824076,5.3227579 85.2469794,10.0217989 85.264,14.776 C85.264,27.628 91.328,39.248 91.328,52.924 C91.328,58.124 90.4,62.472 88.296,66.924 L88.296,66.924 L77.86,66.924 C79.8821789,62.5903925 80.9177259,57.862123 80.892,53.08 C80.892,40.228 74.828,28.608 74.828,14.932 C74.7979017,10.117701 75.8318787,5.35621627 77.856,0.988 L77.856,0.988 L88.296,0.988 Z M29.596,0.996 C28.332,3.796 27.66,7.588 27.66,10.964 L27.66,10.964 L19.24,10.964 C19.0724644,12.2210593 18.9882806,13.4878257 18.988,14.756 C18.988,27.608 25.052,39.228 25.052,52.904 C25.052,58.104 24.124,62.452 22.02,66.904 L22.02,66.904 L11.58,66.904 C13.6005469,62.5699902 14.6347121,57.8417923 14.608,53.06 C14.608,40.208 8.548,28.588 8.548,14.912 C8.54838345,13.5893351 8.63255198,12.2680227 8.8,10.956 L8.8,10.956 L0.4,10.956 C0.396,7.504 1.132,3.716 2.396,0.996 L2.396,0.996 Z M42.58,0.988 C40.056,9.64 40.224,17.136 44.856,37.24 C43.508,16.56 44.604,9.556 48.56,0.988 L48.56,0.988 L56.476,0.988 C54.452,9.564 55.128,17.228 61.104,36.588 C58.832,17.22 59.676,9.556 63.296,0.988 L63.296,0.988 L72.976,1 C69.948,7.752 69.104,14.596 69.104,21.352 C69.104,29.752 70.368,38.152 70.368,46.552 C70.368,53.392 69.524,60.148 66.496,66.904 L66.496,66.904 L56.212,66.904 C58.148,58.332 57.556,51.084 51.412,30.816 C52.76,51.332 51.664,58.416 47.708,66.904 L47.708,66.904 L37.432,66.904 C38.3080525,63.6535775 38.7333628,60.2982024 38.696,56.932 C38.696,41.608 30.796,26.2 30.796,10.876 C30.8010211,7.54028893 31.2243235,4.2183727 32.056,0.988 L32.056,0.988 Z M147.912,0.996 C146.648,3.796 145.976,7.588 145.976,10.964 L145.976,10.964 L137.56,10.964 C137.392464,12.2210593 137.308281,13.4878257 137.308,14.756 C137.308,27.608 143.368,39.228 143.368,52.904 C143.368,58.104 142.444,62.452 140.336,66.904 L140.336,66.904 L129.896,66.904 C131.910906,62.5686816 132.939588,57.8405685 132.908,53.06 C132.908,40.208 126.844,28.588 126.844,14.912 C126.84638,13.5893997 126.930541,12.2682121 127.096,10.956 L127.096,10.956 L118.696,10.956 C118.692,7.504 119.448,3.716 120.712,0.996 L120.712,0.996 Z"></path>
      <path d="M160.132,59.664 C162.896,59.668 163.016,62.016 163.016,62.964 L163.016,66.908 L152.116,66.908 L152.116,62.948 C152.116,61.248 152.616,59.848 154.94,59.848 C156.192,59.848 157.1,60.464 157.34,61.664 L157.34,61.664 L157.372,61.664 C157.596,60.064 158.636,59.664 160.132,59.664 L160.132,59.664 Z M159.8,61.896 C158.836,61.896 158.244,62.252 158.244,63.372 L158.244,63.372 L158.244,64.672 L161.34,64.672 L161.339809,63.3700365 C161.336049,62.8731806 161.2605,61.896 159.8,61.896 Z M155.18,62.012 C154.821728,61.9853054 154.468519,62.1089929 154.205171,62.3533677 C153.941823,62.5977426 153.792119,62.9407351 153.792,63.3 L153.792,63.3 L153.792,64.672 L156.572,64.672 L156.572,63.18 C156.572,62.692 156.24,62.012 155.18,62.012 Z M152.116,50.88 L159.24,53.86 L163.016,53.86 L163.016,56.092 L159.24,56.092 L152.116,58.884 L152.116,56.448 L156.72,54.852 L152.116,53.152 L152.116,50.88 Z M157.939347,39.6083242 C160.656144,39.6152892 163.196,39.7718261 163.196,43.288 C163.196,46.6443478 160.908469,46.9362042 158.31546,46.961583 L157.943166,46.9636979 L157.943166,46.9636979 L157.192812,46.9637196 L157.192812,46.9637196 L156.820455,46.9616658 C154.226866,46.9368393 151.936,46.648 151.936,43.288 C151.936,39.928 154.226866,39.6358261 156.820455,39.6104197 L157.192812,39.6083025 L157.192812,39.6083025 Z M157.568,41.868 C154.768,41.868 153.568,42.036 153.568,43.288 C153.568,44.54 154.768,44.704 157.568,44.704 C160.368,44.704 161.568,44.544 161.568,43.288 C161.568,42.032 160.368,41.868 157.568,41.868 Z M159.844,30.776 C161.476,30.776 163.196,31.676 163.196,34.396 C163.196,36.848 161.9,38.028 159.844,38.028 L159.844,38.028 L152.116,38.028 L152.116,35.8 L159.696,35.8 C161.036,35.8 161.568,35.224 161.568,34.424 C161.568,33.452 160.896,33.008 159.696,33.008 L159.696,33.008 L152.116,33.008 L152.116,30.776 Z M163.012,26.88 L163.012,29.112 L152.116,29.112 L152.116,26.88 L163.012,26.88 Z M158.376781,17.9094892 C160.237548,17.9270837 163.016,18.2277447 163.016,21.472 L163.016,21.472 L163.016,25.104 L152.116,25.104 L152.116,21.384 C152.116,18.46 154.112,17.912 157.504,17.912 C157.646638,17.912 157.804922,17.9101747 157.975154,17.9091847 Z M157.568,20.18 L157.170053,20.1804599 C155.332124,20.1868978 153.792,20.2834667 153.792,21.732 L153.792,21.732 L153.792,22.876 L161.34,22.876 L161.34,21.804 C161.34,20.448 160.296,20.18 157.568,20.18 L157.568,20.18 Z M163.016,8.592 L163.016,10.94 L160.616,11.532 L160.616,14.576 L163.016,15.18 L163.016,17.38 L152.116,14.428 L152.116,11.488 L163.016,8.592 Z M158.924,12.004 L154.216,13.084 L154.216,13.112 L158.924,14.132 L158.924,12.004 Z M158.376781,0.769489188 C160.237548,0.787083748 163.016,1.08774468 163.016,4.332 L163.016,4.332 L163.016,7.964 L152.116,7.964 L152.116,4.24 C152.116,1.316 154.112,0.772 157.504,0.772 C157.610979,0.772 157.726758,0.770973291 157.849778,0.770042284 Z M157.568,3.032 L157.170053,3.03245867 C155.332124,3.03888 153.792,3.1352 153.792,4.58 L153.792,4.58 L153.792,5.732 L161.34,5.732 L161.34,4.656 C161.34,3.296 160.296,3.032 157.568,3.032 L157.568,3.032 Z"></path>
      <path d="M148.972,4.392 L148.972,5.192 L151.2,5.192 L151.2,5.592 L148.972,5.592 L148.972,6.412 L148.696,6.412 L148.696,4.392 L148.972,4.392 Z M151.2,1.1 L151.2,1.5 L148.972,1.5 L151.2,2.368 L151.2,2.744 L148.972,3.596 L151.2,3.596 L151.2,3.968 L148.696,3.968 L148.696,3.332 L150.8,2.552 L148.696,1.752 L148.696,1.1 L151.2,1.1 Z"></path>
    </g>
  </svg>
