<svg class="logo-wetbrush" width="75" height="50" xmlns="http://www.w3.org/2000/svg" viewBox="0 0 1006.41 664.82">
	<g fill="currentColor">
    <path d="M547.16,577.64a58,58,0,0,0-25.59,5.93l-5.05,16c6.79-3.84,16.44-7.32,23.4-7.32,16.57,0,23.93,11.51,18.49,28.77-5.38,17.09-20.68,29.12-37.07,29.12C506.7,650.18,498,639,505.25,616l23.62-75H513.52L489,618.79c-8.67,27.55,3.12,46,27.7,46,27.2,0,49.83-20.92,57.64-45.68C581.72,595.77,568.6,577.64,547.16,577.64Z" />
    <path d="M636.18,592.29l4.61-14.65H637.3c-10.29,0-18.43,3.14-26.24,11.34h-.34l3-9.59H599.09l-26.36,83.69h15.34L600.38,624c7.13-22.67,18.71-31.73,33.52-31.73Z" />
    <path d="M703.88,579.39,688.51,628.2c-4.06,12.91-16.34,22-27.32,22s-17.54-9.07-13.49-22l15.38-48.81H647.74L632.36,628.2c-6.91,22,3.82,36.62,24.21,36.62s40.37-14.64,47.29-36.62l15.37-48.81Z" />
    <path d="M599.69,422.67c1.23-4,59-19,78.33-30,19.94-11,38.85-23.82,45.5-53.07a137.89,137.89,0,0,0,3.33-29.34c.08-7.22.16-19.57-4.81-31.81-4.75-12.25-16-24.65-35.73-28.46A77.52,77.52,0,0,0,672,248.51c-41.13-.56-71.77,24.83-93.08,55.84-21.51,31.2-34.82,69-41.71,97.95-3.55,15.06-5.38,27.58-5.54,36-1.38,48.4,14.07,79.86,49,86.89a80.34,80.34,0,0,0,14.71,1.52c6.76.07,26.57-1.39,48.15-10.08,46.25-22,54.1-46.39,57.23-52.78,11.44-23.37-6.92-36.63-6.92-36.63-3.65-1.82-9.54-5.32-25,9.4-6.06,5.77-35.51,27.63-56.16,34.3S596,446.69,596.3,438.79A60.21,60.21,0,0,1,599.69,422.67Zm15.44-65.83c4.2-10.19,4.78-11.08,12.89-24.44,11.54-20.8,27.54-32,36.48-33,14.17-1.61,33.79,29.14-8.9,52.21s-41.34,23.06-50.18,27.11Z" />
    <path d="M591.17,134.92c-7.54-11.57-41.3-20.67-47.95-22-7.68-1.55-13.61-2.23-22.46,2.81s-14.29,16.65-20.22,31.89L387.9,473.11l-12.07-228.9c-2.73-15.78-6.63-33.71-21.71-37.15a23.93,23.93,0,0,0-7.3-.29,25.89,25.89,0,0,0-19.95,12.08c-5,7.33-9.26,17.36-16.18,33.43,0,0-88.45,232.94-93.55,245.05,1-27.73,9.34-235,9.34-235,.31-15.31-4.34-29.81-13.29-30.43s-38.72,1.9-48.6,2.58c-15.55,1.08-20.3,14.26-21.33,23.72-.84,7.9-1.92,115-3.26,164.88l-4.27,191.69c.22,9.51,0,15.57,3.72,20.82s45.92,16.53,49.07,17.2c2.62.53,15.41,2.61,19.34-3.55S321.7,406.67,321.7,406.67l11.58,200.5s-.73-9.87.72,13.22,48.33,34,59.55,35.76c8.5,1.38,17.31-18.65,18-20.26,17-39.29,177-466.84,180.51-475.3C592.07,160.59,597.22,144.22,591.17,134.92Z" />
    <path d="M575.5.15C323.4-5.87,20.55,169,1.65,330.69-11.94,447,61.49,520.24,109.08,560.83c5.26,4.49,5.25-4.13,1.64-10.33-.3-3-83.9-62.08-78.86-193s244.3-301,484.91-313.76,441.52,63.33,449.68,214.76c3.24,60.18-49.39,123.54-72.27,142s-50.28,37.16-50.28,37.16c-27,15.75-21.71-6.62-21.71-6.62L827.72,401l20.68-94.62c11.5-1.74,24.92-2.93,36-4.93,13.07-2.36,20.76-.87,24.07-13.08,0-.21,3.8-16.47,2-24.79-1.91-3.21-4.6-5.6-9-5.76-4.08-.14-41.89,4.28-41.89,4.28,2.67-14.12,9.51-42.3,9.75-49.92.65-11.22-1.87-19.32-13.17-21.49a25.39,25.39,0,0,0-4.65-.48c-6.18-.13-10.62,1.36-14.93,2.81-7.87,2-14.94,3.83-20.8,9.74-5.65,5.86-8.89,13.7-13.47,27.36-3.06,10.69-7.22,25.68-10.13,33.18-14.41,1.49-24.94,1.74-31.73,3.39-11.81,1-16.38,6-17.45,12.24-.47,2.07-5.31,22.15-2.25,28.29,3.24,8.73,37.19,3.55,37.19,3.55L760.3,397.21c-.62,2.62-1.23,5.2-1.81,7.61-7.49,31.57-8.77,40.88-8.94,50.22-.93,25.74,9.21,44.56,30.36,48.85l.31.06a51.8,51.8,0,0,0,6.69.88A63.34,63.34,0,0,0,807.78,501c4.86-1.39,23.36-6.57,75.53-42.21s120.89-118.56,123-194.43C1010.88,101.63,827.61,6.17,575.5.15Z" />
    <path d="M849.68,577.64c-8.89,0-17.95,3.84-24.3,9.07L839.77,541H824.42L786,663.08h15.35l15.37-48.82c4.07-12.9,16.16-22,27.32-22,11,0,18.87,4.88,13.49,22l-15.38,48.82h15.34l15.38-48.82C881.74,586,869,577.64,849.68,577.64Z" />
    <path d="M741.08,601.36c2-5.24,4.75-7.33,12.24-7.33H792l4.62-14.65H760.56c-18.31,0-31.07,7.85-35.74,22.67-9.11,29,45.59,23,40.76,38.36-1.66,5.24-5.32,8-12.46,8h-42.9l-4.62,14.65h42.9c14.81,0,28.34-7.49,33.33-23.36C791.28,609.72,736.52,615.82,741.08,601.36Z" />
    <path d="M899.47,201.73a17.66,17.66,0,1,0,17.64,17.66A17.68,17.68,0,0,0,899.47,201.73Zm0,31.52a13.87,13.87,0,1,1,13.86-13.86A13.88,13.88,0,0,1,899.47,233.25Z" />
    <path d="M905.56,223a7.38,7.38,0,0,0-1.64-3.49,6,6,0,0,0,.78-9c-1.32-1.24-3.13-1.82-5.72-1.82a21.34,21.34,0,0,0-4.14.39l-.94.21v20h3.66V221h1.57c1.55.07,2.42.54,2.93,2.94a22.7,22.7,0,0,0,1.25,4.69l.33.66h4.05l-.9-1.76A26.3,26.3,0,0,1,905.56,223Zm-8-10.77a13,13,0,0,1,1.4-.07c3.68,0,3.68,2,3.68,2.7,0,1.69-1.31,2.74-3.41,2.74h-1.67Z" />
	</g>
</svg>
